<?xml version="1.0" encoding="UTF-8"?>
<!DOCTYPE svg PUBLIC "-//W3C//DTD SVG 1.1//EN" "http://www.w3.org/Graphics/SVG/1.1/DTD/svg11.dtd">
<svg xmlns="http://www.w3.org/2000/svg" version="1.1" width="512px" height="512px" style="shape-rendering:geometricPrecision; text-rendering:geometricPrecision; image-rendering:optimizeQuality; fill-rule:evenodd; clip-rule:evenodd" xmlns:xlink="http://www.w3.org/1999/xlink">
<g><path style="opacity:0.989" fill="#fe6a6a" d="M 259.5,-0.5 C 265.5,-0.5 271.5,-0.5 277.5,-0.5C 377.766,12.0408 449.266,64.0408 492,155.5C 502.296,180.684 508.796,206.684 511.5,233.5C 511.5,248.167 511.5,262.833 511.5,277.5C 498.959,377.766 446.959,449.266 355.5,492C 330.316,502.296 304.316,508.796 277.5,511.5C 271.5,511.5 265.5,511.5 259.5,511.5C 171.134,502.914 103.301,461.248 56,386.5C 16.1149,315.094 9.78159,240.76 37,163.5C 70.7411,83.0952 129.574,30.9286 213.5,7C 228.856,3.6891 244.189,1.1891 259.5,-0.5 Z"/></g>
<g><path style="opacity:1" fill="#ee5253" d="M 233.5,-0.5 C 242.167,-0.5 250.833,-0.5 259.5,-0.5C 244.189,1.1891 228.856,3.6891 213.5,7C 129.574,30.9286 70.7411,83.0952 37,163.5C 9.78159,240.76 16.1149,315.094 56,386.5C 103.301,461.248 171.134,502.914 259.5,511.5C 250.833,511.5 242.167,511.5 233.5,511.5C 133.234,498.959 61.734,446.959 19,355.5C 8.70393,330.316 2.20393,304.316 -0.5,277.5C -0.5,262.833 -0.5,248.167 -0.5,233.5C 12.0408,133.234 64.0408,61.734 155.5,19C 180.684,8.70393 206.684,2.20393 233.5,-0.5 Z"/></g>
<g><path style="opacity:1" fill="#ee5253" d="M 262.5,35.5 C 342.724,40.8438 403.891,77.5105 446,145.5C 479.982,206.991 484.648,270.657 460,336.5C 433.159,399.675 387.325,442.509 322.5,465C 302.901,470.776 282.901,474.276 262.5,475.5C 189.326,468.675 132.159,435.008 91,374.5C 52.7682,311.408 46.1015,245.075 71,175.5C 107.919,92.0884 171.753,45.4217 262.5,35.5 Z"/></g>
<g><path style="opacity:1" fill="#e24951" d="M 262.5,35.5 C 171.753,45.4217 107.919,92.0884 71,175.5C 46.1015,245.075 52.7682,311.408 91,374.5C 132.159,435.008 189.326,468.675 262.5,475.5C 185.37,475.683 123.537,445.35 77,384.5C 39.3218,330.119 27.3218,270.453 41,205.5C 61.4484,129.389 108.282,76.8889 181.5,48C 207.7,38.6619 234.7,34.4952 262.5,35.5 Z"/></g>
<g><path style="opacity:1" fill="#d8dae3" d="M 202.5,175.5 C 193.708,181.412 190.875,189.412 194,199.5C 211.667,217.167 229.333,234.833 247,252.5C 247.667,254.167 247.667,255.833 247,257.5C 228.638,275.528 210.638,293.862 193,312.5C 191.426,319.685 193.092,326.018 198,331.5C 199.129,333.141 200.629,334.141 202.5,334.5C 200.157,337.59 196.99,339.256 193,339.5C 180.268,337.601 173.101,330.268 171.5,317.5C 171.552,314.063 172.719,311.063 175,308.5C 192.875,290.959 210.375,273.126 227.5,255C 210.041,236.541 192.208,218.374 174,200.5C 169.668,187.084 174.168,177.584 187.5,172C 190.833,171.333 194.167,171.333 197.5,172C 199.584,172.697 201.251,173.864 202.5,175.5 Z"/></g>
<g><path style="opacity:1" fill="#e4e9f7" d="M 202.5,334.5 C 200.629,334.141 199.129,333.141 198,331.5C 193.092,326.018 191.426,319.685 193,312.5C 210.638,293.862 228.638,275.528 247,257.5C 247.667,255.833 247.667,254.167 247,252.5C 229.333,234.833 211.667,217.167 194,199.5C 190.875,189.412 193.708,181.412 202.5,175.5C 219.506,193.339 237.006,210.673 255,227.5C 256.225,227.138 257.391,226.638 258.5,226C 276.528,207.638 294.862,189.638 313.5,172C 323.019,171.008 330.519,174.508 336,182.5C 340.147,188.324 340.48,194.324 337,200.5C 318.792,218.374 300.959,236.541 283.5,255C 283.862,256.225 284.362,257.391 285,258.5C 302.667,276.167 320.333,293.833 338,311.5C 340.172,323.98 335.339,332.813 323.5,338C 319.833,338.667 316.167,338.667 312.5,338C 293.862,320.362 275.528,302.362 257.5,284C 256.167,283.333 254.833,283.333 253.5,284C 236.632,301.035 219.632,317.868 202.5,334.5 Z"/></g>
</svg>
