<?xml version="1.0" encoding="UTF-8"?>
<!DOCTYPE svg PUBLIC "-//W3C//DTD SVG 1.1//EN" "http://www.w3.org/Graphics/SVG/1.1/DTD/svg11.dtd">
<svg xmlns="http://www.w3.org/2000/svg" version="1.1" width="936px" height="936px" style="shape-rendering:geometricPrecision; text-rendering:geometricPrecision; image-rendering:optimizeQuality; fill-rule:evenodd; clip-rule:evenodd" xmlns:xlink="http://www.w3.org/1999/xlink">
<g><path style="opacity:1" fill="#fefefe" d="M -0.5,-0.5 C 311.5,-0.5 623.5,-0.5 935.5,-0.5C 935.5,311.5 935.5,623.5 935.5,935.5C 623.5,935.5 311.5,935.5 -0.5,935.5C -0.5,623.5 -0.5,311.5 -0.5,-0.5 Z"/></g>
<g><path style="opacity:1" fill="#d1d1d1" d="M 659.5,255.5 C 674.826,255.323 680.66,262.657 677,277.5C 543.833,410.667 410.667,543.833 277.5,677C 262.515,680.677 255.349,674.844 256,659.5C 256.667,658.167 257.333,656.833 258,655.5C 286.833,626.667 315.667,597.833 344.5,569C 291.162,517.475 266.995,454.642 272,380.5C 282.179,337.987 308.013,309.82 349.5,296C 396.897,285.021 436.064,298.188 467,335.5C 497.582,298.305 536.415,285.138 583.5,296C 592.08,298.812 600.413,301.812 608.5,305C 625.091,287.906 642.091,271.406 659.5,255.5 Z"/></g>
<g><path style="opacity:1" fill="#d1d1d1" d="M 637.5,359.5 C 654.037,359.537 662.537,367.87 663,384.5C 666.423,438.885 652.423,488.218 621,532.5C 584.435,581.202 537.935,617.035 481.5,640C 472.907,642.739 464.241,643.072 455.5,641C 438.214,634.857 421.881,626.857 406.5,617C 398.722,609.054 397.555,600.221 403,590.5C 478.833,514.667 554.667,438.833 630.5,363C 632.925,361.787 635.259,360.621 637.5,359.5 Z"/></g>
</svg>
